<svg width="34" height="34" viewBox="0 0 34 34" fill="none" xmlns="http://www.w3.org/2000/svg">
<path d="M31.833 0.333008H2.16634C1.68011 0.333008 1.2138 0.526162 0.869979 0.869979C0.526162 1.2138 0.333008 1.68011 0.333008 2.16634V31.833C0.333008 32.0738 0.380429 32.3122 0.472562 32.5346C0.564696 32.757 0.699738 32.9591 0.869979 33.1294C1.04022 33.2996 1.24232 33.4347 1.46476 33.5268C1.68719 33.6189 1.92558 33.6663 2.16634 33.6663H18.133V20.7497H13.7997V15.7497H18.133V11.9997C18.0432 11.1193 18.1472 10.2299 18.4375 9.3939C18.7279 8.55792 19.1976 7.79558 19.8138 7.16036C20.43 6.52514 21.1776 6.03241 22.0044 5.71674C22.8311 5.40107 23.7169 5.27009 24.5997 5.33301C25.8969 5.32503 27.1935 5.3918 28.483 5.53301V10.033H25.833C23.733 10.033 23.333 11.033 23.333 12.483V15.6997H28.333L27.683 20.6997H23.333V33.6663H31.833C32.0738 33.6663 32.3122 33.6189 32.5346 33.5268C32.757 33.4347 32.9591 33.2996 33.1294 33.1294C33.2996 32.9591 33.4347 32.757 33.5268 32.5346C33.6189 32.3122 33.6663 32.0738 33.6663 31.833V2.16634C33.6663 1.92558 33.6189 1.68719 33.5268 1.46476C33.4347 1.24232 33.2996 1.04022 33.1294 0.869979C32.9591 0.699738 32.757 0.564696 32.5346 0.472562C32.3122 0.380429 32.0738 0.333008 31.833 0.333008Z" fill="white"/>
</svg>
