<svg width="276" height="75" viewBox="0 0 276 75" fill="none" xmlns="http://www.w3.org/2000/svg">
<path d="M205.023 50.1228C202.194 50.1228 199.428 49.2945 197.075 47.7426C194.722 46.1907 192.889 43.9849 191.806 41.4042C190.723 38.8235 190.44 35.9837 190.992 33.2441C191.544 30.5044 192.906 27.9878 194.907 26.0126C196.908 24.0374 199.457 22.6923 202.232 22.1474C205.008 21.6024 207.884 21.8821 210.498 22.9511C213.113 24.02 215.347 25.8303 216.919 28.1529C218.491 30.4754 219.33 33.2061 219.33 35.9994C219.318 39.7415 217.807 43.3269 215.126 45.973C212.446 48.619 208.814 50.1109 205.023 50.1228ZM205.023 26.614C203.143 26.614 201.305 27.1645 199.742 28.1957C198.178 29.227 196.96 30.6928 196.24 32.4078C195.52 34.1227 195.332 36.0098 195.699 37.8304C196.066 39.651 196.971 41.3233 198.301 42.6359C199.63 43.9485 201.324 44.8423 203.169 45.2045C205.013 45.5666 206.924 45.3807 208.662 44.6704C210.399 43.96 211.884 42.7571 212.928 41.2137C213.973 39.6702 214.531 37.8557 214.531 35.9994C214.531 33.5102 213.529 31.123 211.746 29.3629C209.963 27.6028 207.545 26.614 205.023 26.614Z" fill="white"/>
<path d="M110.917 22.6693C110.091 22.623 109.263 22.623 108.437 22.6693C102.989 23.1822 97.8281 25.3169 93.6369 28.7904C89.4458 32.2639 86.4225 36.9124 84.9675 42.1201C84.293 44.4651 83.9529 46.8915 83.9571 49.3292H88.9173C88.9163 46.8744 89.3355 44.437 90.1574 42.1201H108.529V49.3746H113.489V22.6693C112.632 22.6207 111.773 22.6207 110.917 22.6693ZM108.437 37.2688H92.5227C94.3092 34.626 96.6592 32.4005 99.408 30.748C102.157 29.0956 105.238 28.056 108.437 27.702V37.2688Z" fill="white"/>
<path d="M131.814 37.881L136.246 35.614L140.838 33.347C139.807 31.9929 138.654 30.7334 137.394 29.5838C133.028 25.6047 127.446 23.1723 121.526 22.6694C120.7 22.6232 119.872 22.6232 119.046 22.6694C118.219 22.6243 117.392 22.6243 116.565 22.6694V49.284H121.526V43.0725L127.175 40.2614L136.36 49.4427H136.544L140.999 47.1757L131.814 37.881ZM123.478 36.5435L121.526 37.541V27.6342C125.545 28.1163 129.352 29.6853 132.525 32.1682L128.139 34.4352L123.478 36.5435Z" fill="white"/>
<path d="M189.89 40.1709C189.409 41.6836 188.68 43.1081 187.731 44.3875C186.22 46.3932 184.197 47.9666 181.868 48.9463C179.539 49.9261 176.988 50.2771 174.476 49.9634C171.964 49.6497 169.582 48.6826 167.573 47.1611C165.565 45.6395 164.002 43.6183 163.045 41.3044H168.441C169.259 42.4827 170.338 43.4613 171.596 44.1657C172.855 44.8701 174.259 45.2817 175.703 45.3691C177.147 45.4566 178.592 45.2176 179.928 44.6703C181.265 44.1231 182.457 43.282 183.414 42.2112L181.6 41.3044L166.926 34.0046L162.562 31.7376C162.645 31.4275 162.753 31.1243 162.884 30.8308C163.335 29.6474 163.953 28.533 164.721 27.521C166.245 25.4878 168.293 23.8957 170.653 22.9111C173.013 21.9265 175.597 21.5855 178.136 21.9237C180.675 22.2619 183.075 23.2669 185.086 24.8337C187.097 26.4005 188.645 28.4717 189.568 30.8308H184.218C183.425 29.6091 182.356 28.5859 181.095 27.8418C179.833 27.0978 178.414 26.6533 176.949 26.5433C175.484 26.4334 174.013 26.6611 172.652 27.2085C171.291 27.7558 170.077 28.6079 169.107 29.6973L171.404 30.8308L185.572 37.8812L189.89 40.1709Z" fill="white"/>
<path d="M162.127 22.625H141.321V27.5217H149.244V49.3756H154.204V27.5217H162.127V22.625Z" fill="white"/>
<path d="M248.012 22.625V49.3756H242.707L227.252 31.3303V49.3756H222.659V22.625H225.828L243.419 43.164V22.625H248.012Z" fill="white"/>
<g filter="url(#filter0_d_1734_21271)">
<path d="M66.8715 40.8057C66.1435 45.3014 64.4012 49.5781 61.7734 53.3195V43.3447L66.8715 40.8057Z" fill="#F25B38"/>
</g>
<g filter="url(#filter1_d_1734_21271)">
<path d="M56.2617 58.3754C56.048 58.3981 55.8324 58.3981 55.6187 58.3754H55.1135H54.5854H54.1261H53.7127H53.2305H53.0238H52.6104L52.0593 58.2394C51.8503 58.2049 51.6434 58.1595 51.4393 58.1034H51.1867H50.957L49.9466 57.786C49.8131 57.7508 49.6825 57.7054 49.5562 57.65C45.763 56.2702 42.4907 53.7732 40.1824 50.4969C37.8741 47.2207 36.6411 43.3234 36.6504 39.3326V5.59961H36.4437C34.6657 5.60325 32.8912 5.75492 31.139 6.05301C24.9036 7.12672 19.1557 10.0739 14.68 14.4923C10.2042 18.9107 7.2188 24.585 6.13117 30.7407C5.82626 32.4777 5.67261 34.2372 5.67188 36.0001C5.66578 44.043 8.89324 51.7595 14.6455 57.4551C20.3978 63.1507 28.2047 66.3599 36.3519 66.378C41.1342 66.4095 45.856 65.3219 50.1303 63.2042L51.4622 62.5241C53.366 61.4672 55.1451 60.205 56.7669 58.7608L57.1573 58.3981H56.2617V58.3754ZM36.1911 54.2495C37.958 56.5096 40.1012 58.4568 42.5292 60.0077C38.8536 60.9193 35.0164 60.9965 31.3062 60.2337C27.596 59.4709 24.1091 57.8878 21.1078 55.6034C18.1064 53.319 15.6685 50.3927 13.9774 47.0445C12.2863 43.6963 11.386 40.0133 11.344 36.2722H31.0242C30.9325 37.161 30.8865 38.0538 30.8864 38.9472C30.8835 44.4881 32.7499 49.8722 36.1911 54.2495ZM11.9411 30.582C12.9703 26.0014 15.298 21.8043 18.6526 18.4807C22.0072 15.157 26.2502 12.8438 30.8864 11.8112V30.582H11.9411Z" fill="#F25B38"/>
</g>
<g filter="url(#filter2_d_1734_21271)">
<path d="M40.6006 42.1665C41.0276 44.1701 41.8466 46.0722 43.0118 47.766L43.2185 48.0607L50.8885 44.2295V53.7963H51.1641C51.9725 54.0667 52.802 54.2714 53.6442 54.4084C54.5098 54.5456 55.3853 54.6139 56.2621 54.6124H56.951V41.1917L67.2389 36.0683V35.8189C67.2668 33.626 67.0512 31.4366 66.5959 29.29L66.4811 28.7686L40.7154 41.5998H40.6006V42.1212V42.1665Z" fill="#F25B38"/>
</g>
<g filter="url(#filter3_d_1734_21271)">
<path d="M46.4793 27.7034L49.8091 26.0485L54.287 30.4238L59.5688 27.7488L55.1138 23.3735L62.3015 19.7916L62.1867 19.6102C61.7504 18.9528 61.36 18.3861 60.9696 17.8647C60.5792 17.3432 59.8903 16.5045 59.3391 15.8924C58.7165 15.1795 58.0573 14.4985 57.3642 13.8521V13.7387H57.2265C52.7393 9.59334 47.0882 6.88299 41.0138 5.96289H40.7842V37.2702L46.4563 34.3911L46.4793 27.7034ZM53.9885 18.4314L46.4793 22.2626V13.3306C47.5445 13.7989 48.573 14.3445 49.5565 14.9629C50.1076 15.3029 50.6358 15.6657 51.118 16.0057C52.139 16.7372 53.0989 17.5484 53.9885 18.4314Z" fill="#F25B38"/>
</g>
<g filter="url(#filter4_d_1734_21271)">
<path d="M65.149 24.9376L63.5645 25.7537L62.0029 24.2802L64.2993 23.124C64.6438 23.7361 64.9194 24.3482 65.149 24.9376Z" fill="#333333"/>
</g>
<path d="M276 22.6211L265.314 36.0066L264.821 36.6216V49.3682H260.189V36.6063L259.696 36.0066L249.03 22.6242H254.649L260.189 29.7641L262.505 32.5933L264.821 29.7795L270.381 22.6211H276Z" fill="white"/>
<defs>
<filter id="filter0_d_1734_21271" x="57.7734" y="40.8057" width="13.0977" height="20.5137" filterUnits="userSpaceOnUse" color-interpolation-filters="sRGB">
<feFlood flood-opacity="0" result="BackgroundImageFix"/>
<feColorMatrix in="SourceAlpha" type="matrix" values="0 0 0 0 0 0 0 0 0 0 0 0 0 0 0 0 0 0 127 0" result="hardAlpha"/>
<feOffset dy="4"/>
<feGaussianBlur stdDeviation="2"/>
<feComposite in2="hardAlpha" operator="out"/>
<feColorMatrix type="matrix" values="0 0 0 0 0 0 0 0 0 0 0 0 0 0 0 0 0 0 0.25 0"/>
<feBlend mode="normal" in2="BackgroundImageFix" result="effect1_dropShadow_1734_21271"/>
<feBlend mode="normal" in="SourceGraphic" in2="effect1_dropShadow_1734_21271" result="shape"/>
</filter>
<filter id="filter1_d_1734_21271" x="1.67188" y="5.59961" width="59.4854" height="68.7793" filterUnits="userSpaceOnUse" color-interpolation-filters="sRGB">
<feFlood flood-opacity="0" result="BackgroundImageFix"/>
<feColorMatrix in="SourceAlpha" type="matrix" values="0 0 0 0 0 0 0 0 0 0 0 0 0 0 0 0 0 0 127 0" result="hardAlpha"/>
<feOffset dy="4"/>
<feGaussianBlur stdDeviation="2"/>
<feComposite in2="hardAlpha" operator="out"/>
<feColorMatrix type="matrix" values="0 0 0 0 0 0 0 0 0 0 0 0 0 0 0 0 0 0 0.25 0"/>
<feBlend mode="normal" in2="BackgroundImageFix" result="effect1_dropShadow_1734_21271"/>
<feBlend mode="normal" in="SourceGraphic" in2="effect1_dropShadow_1734_21271" result="shape"/>
</filter>
<filter id="filter2_d_1734_21271" x="36.6006" y="28.7686" width="34.6406" height="33.8438" filterUnits="userSpaceOnUse" color-interpolation-filters="sRGB">
<feFlood flood-opacity="0" result="BackgroundImageFix"/>
<feColorMatrix in="SourceAlpha" type="matrix" values="0 0 0 0 0 0 0 0 0 0 0 0 0 0 0 0 0 0 127 0" result="hardAlpha"/>
<feOffset dy="4"/>
<feGaussianBlur stdDeviation="2"/>
<feComposite in2="hardAlpha" operator="out"/>
<feColorMatrix type="matrix" values="0 0 0 0 0 0 0 0 0 0 0 0 0 0 0 0 0 0 0.25 0"/>
<feBlend mode="normal" in2="BackgroundImageFix" result="effect1_dropShadow_1734_21271"/>
<feBlend mode="normal" in="SourceGraphic" in2="effect1_dropShadow_1734_21271" result="shape"/>
</filter>
<filter id="filter3_d_1734_21271" x="36.7842" y="5.96289" width="29.5176" height="39.3076" filterUnits="userSpaceOnUse" color-interpolation-filters="sRGB">
<feFlood flood-opacity="0" result="BackgroundImageFix"/>
<feColorMatrix in="SourceAlpha" type="matrix" values="0 0 0 0 0 0 0 0 0 0 0 0 0 0 0 0 0 0 127 0" result="hardAlpha"/>
<feOffset dy="4"/>
<feGaussianBlur stdDeviation="2"/>
<feComposite in2="hardAlpha" operator="out"/>
<feColorMatrix type="matrix" values="0 0 0 0 0 0 0 0 0 0 0 0 0 0 0 0 0 0 0.25 0"/>
<feBlend mode="normal" in2="BackgroundImageFix" result="effect1_dropShadow_1734_21271"/>
<feBlend mode="normal" in="SourceGraphic" in2="effect1_dropShadow_1734_21271" result="shape"/>
</filter>
<filter id="filter4_d_1734_21271" x="58.0029" y="23.124" width="11.1465" height="10.6299" filterUnits="userSpaceOnUse" color-interpolation-filters="sRGB">
<feFlood flood-opacity="0" result="BackgroundImageFix"/>
<feColorMatrix in="SourceAlpha" type="matrix" values="0 0 0 0 0 0 0 0 0 0 0 0 0 0 0 0 0 0 127 0" result="hardAlpha"/>
<feOffset dy="4"/>
<feGaussianBlur stdDeviation="2"/>
<feComposite in2="hardAlpha" operator="out"/>
<feColorMatrix type="matrix" values="0 0 0 0 0 0 0 0 0 0 0 0 0 0 0 0 0 0 0.25 0"/>
<feBlend mode="normal" in2="BackgroundImageFix" result="effect1_dropShadow_1734_21271"/>
<feBlend mode="normal" in="SourceGraphic" in2="effect1_dropShadow_1734_21271" result="shape"/>
</filter>
</defs>
</svg>
