<svg width="96" height="96" viewBox="0 0 96 96" fill="none" xmlns="http://www.w3.org/2000/svg">
<circle cx="48" cy="48" r="48" fill="#02272F"/>
<path d="M58.3262 37.1641L58.5898 42.7539H57.9219C57.793 41.7695 57.6172 41.0664 57.3945 40.6445C57.0312 39.9648 56.5449 39.4668 55.9355 39.1504C55.3379 38.8223 54.5469 38.6582 53.5625 38.6582H50.2051V56.8691C50.2051 58.334 50.3633 59.248 50.6797 59.6113C51.125 60.1035 51.8105 60.3496 52.7363 60.3496H53.5625V61H43.4551V60.3496H44.2988C45.3066 60.3496 46.0215 60.0449 46.4434 59.4355C46.7012 59.0605 46.8301 58.2051 46.8301 56.8691V38.6582H43.9648C42.8516 38.6582 42.0605 38.7402 41.5918 38.9043C40.9824 39.127 40.4609 39.5547 40.0273 40.1875C39.5938 40.8203 39.3359 41.6758 39.2539 42.7539H38.5859L38.8672 37.1641H58.3262Z" fill="white"/>
</svg>
