<svg width="96" height="96" viewBox="0 0 96 96" fill="none" xmlns="http://www.w3.org/2000/svg">
<circle cx="48" cy="48" r="48" fill="#02272F"/>
<path d="M60.3443 40.8599L47.9993 47.9999L35.6543 40.8599C35.9078 40.4212 36.2692 40.0546 36.7043 39.7949L46.4993 34.1399C47.4304 33.6148 48.5682 33.6148 49.4993 34.1399L59.2943 39.7949C59.7294 40.0546 60.0908 40.4212 60.3443 40.8599Z" fill="white"/>
<path d="M48 48.0004V62.2504C47.5271 62.2497 47.0604 62.142 46.635 61.9354L36.75 56.2204C35.8234 55.6843 35.252 54.6958 35.25 53.6254V42.3754C35.2525 41.8439 35.392 41.3221 35.655 40.8604L48 48.0004Z" fill="#F25B38" fill-opacity="0.7"/>
<path d="M60.75 42.3754V53.6254C60.748 54.6958 60.1766 55.6843 59.25 56.2204L49.32 61.9503C48.907 62.1451 48.4566 62.2475 48 62.2504V48.0004L60.345 40.8604C60.608 41.3221 60.7475 41.8439 60.75 42.3754Z" fill="#F25B38"/>
</svg>
