<svg width="96" height="96" viewBox="0 0 96 96" fill="none" xmlns="http://www.w3.org/2000/svg">
<circle cx="48" cy="48" r="48" fill="#02272F"/>
<mask id="mask0_1785_33781" style="mask-type:alpha" maskUnits="userSpaceOnUse" x="30" y="30" width="36" height="36">
<rect x="30" y="30" width="36" height="36" fill="#D9D9D9"/>
</mask>
<g mask="url(#mask0_1785_33781)">
<path d="M36.3562 64.5234C34.9813 64.5234 33.8125 64.0422 32.85 63.0797C31.8875 62.1172 31.4062 60.9484 31.4062 59.5734V36.4734C31.4062 35.0984 31.8875 33.9297 32.85 32.9672C33.8125 32.0047 34.9813 31.5234 36.3562 31.5234H59.4562C60.8312 31.5234 62 32.0047 62.9625 32.9672C63.925 33.9297 64.4062 35.0984 64.4062 36.4734V59.5734C64.4062 60.9484 63.925 62.1172 62.9625 63.0797C62 64.0422 60.8312 64.5234 59.4562 64.5234H36.3562ZM36.3562 61.2234H59.4562C59.9237 61.2234 60.3153 61.065 60.6311 60.7482C60.9478 60.4325 61.1062 60.0409 61.1062 59.5734V36.4734C61.1062 36.0059 60.9478 35.6138 60.6311 35.297C60.3153 34.9813 59.9237 34.8234 59.4562 34.8234H36.3562C35.8888 34.8234 35.4966 34.9813 35.1798 35.297C34.8641 35.6138 34.7062 36.0059 34.7062 36.4734V59.5734C34.7062 60.0409 34.8641 60.4325 35.1798 60.7482C35.4966 61.065 35.8888 61.2234 36.3562 61.2234ZM38.0062 57.9234L44.6062 51.3234L47.5763 54.2522L51.2062 49.6734L57.8062 57.9234H38.0062ZM41.3062 44.7234C40.3988 44.7234 39.6221 44.4 38.9764 43.7532C38.3296 43.1075 38.0062 42.3309 38.0062 41.4234C38.0062 40.5159 38.3296 39.7393 38.9764 39.0936C39.6221 38.4468 40.3988 38.1234 41.3062 38.1234C42.2137 38.1234 42.9909 38.4468 43.6377 39.0936C44.2834 39.7393 44.6062 40.5159 44.6062 41.4234C44.6062 42.3309 44.2834 43.1075 43.6377 43.7532C42.9909 44.4 42.2137 44.7234 41.3062 44.7234Z" fill="white"/>
</g>
</svg>
