<svg width="40" height="40" viewBox="0 0 40 40" fill="none" xmlns="http://www.w3.org/2000/svg">
<path d="M19.9997 15.8663C19.1822 15.8663 18.383 16.1088 17.7033 16.5629C17.0236 17.0171 16.4938 17.6626 16.181 18.4179C15.8681 19.1732 15.7863 20.0043 15.9458 20.806C16.1052 21.6078 16.4989 22.3443 17.077 22.9224C17.655 23.5004 18.3915 23.8941 19.1933 24.0536C19.9951 24.2131 20.8262 24.1312 21.5814 23.8184C22.3367 23.5055 22.9822 22.9758 23.4364 22.296C23.8906 21.6163 24.133 20.8172 24.133 19.9997C24.133 19.4569 24.0261 18.9194 23.8184 18.4179C23.6107 17.9164 23.3062 17.4608 22.9224 17.077C22.5386 16.6932 22.0829 16.3887 21.5814 16.181C21.08 15.9733 20.5425 15.8663 19.9997 15.8663ZM36.5497 11.783C36.5409 10.4959 36.3039 9.22063 35.8497 8.01634C35.5151 7.13511 34.9975 6.33483 34.331 5.66832C33.6645 5.0018 32.8642 4.4842 31.983 4.14967C30.7787 3.69545 29.5034 3.45844 28.2163 3.44967C26.0663 3.33301 25.433 3.33301 19.9997 3.33301C14.5663 3.33301 13.933 3.33301 11.783 3.44967C10.4959 3.45844 9.22063 3.69545 8.01634 4.14967C7.13511 4.4842 6.33483 5.0018 5.66832 5.66832C5.0018 6.33483 4.4842 7.13511 4.14967 8.01634C3.69545 9.22063 3.45844 10.4959 3.44967 11.783C3.33301 13.933 3.33301 14.5663 3.33301 19.9997C3.33301 25.433 3.33301 26.0663 3.44967 28.2163C3.46761 29.5079 3.7043 30.7872 4.14967 31.9997C4.48272 32.8769 4.99989 33.6725 5.66634 34.333C6.33 35.0035 7.13199 35.5211 8.01634 35.8497C9.22063 36.3039 10.4959 36.5409 11.783 36.5497C13.933 36.6663 14.5663 36.6663 19.9997 36.6663C25.433 36.6663 26.0663 36.6663 28.2163 36.5497C29.5034 36.5409 30.7787 36.3039 31.983 35.8497C32.8674 35.5211 33.6694 35.0035 34.333 34.333C34.9995 33.6725 35.5166 32.8769 35.8497 31.9997C36.3035 30.7895 36.5404 29.5088 36.5497 28.2163C36.6663 26.0663 36.6663 25.433 36.6663 19.9997C36.6663 14.5663 36.6663 13.933 36.5497 11.783ZM32.3163 25.1163C32.2629 26.1448 32.0434 27.1579 31.6663 28.1163C31.3428 28.9158 30.8618 29.6421 30.2519 30.2519C29.6421 30.8618 28.9158 31.3428 28.1163 31.6663C27.1489 32.0223 26.1301 32.2193 25.0997 32.2497C23.783 32.2497 23.433 32.2497 19.9997 32.2497C16.5663 32.2497 16.2163 32.2497 14.8997 32.2497C13.8692 32.2193 12.8505 32.0223 11.883 31.6663C11.0565 31.3592 10.3101 30.8692 9.69968 30.233C9.09579 29.6351 8.62941 28.9128 8.33301 28.1163C7.9756 27.1499 7.78402 26.13 7.76634 25.0997C7.76634 23.783 7.76634 23.433 7.76634 19.9997C7.76634 16.5663 7.76634 16.2163 7.76634 14.8997C7.78402 13.8694 7.9756 12.8495 8.33301 11.883C8.64014 11.0565 9.13013 10.3101 9.76634 9.69968C10.3669 9.09905 11.0884 8.63316 11.883 8.33301C12.8505 7.97702 13.8692 7.78002 14.8997 7.74967C16.2163 7.74967 16.5663 7.74967 19.9997 7.74967C23.433 7.74967 23.783 7.74967 25.0997 7.74967C26.1301 7.78002 27.1489 7.97702 28.1163 8.33301C28.9428 8.64014 29.6892 9.13013 30.2997 9.76634C30.9036 10.3643 31.3699 11.0866 31.6663 11.883C32.0223 12.8505 32.2193 13.8692 32.2497 14.8997C32.2497 16.2163 32.2497 16.5663 32.2497 19.9997C32.2497 23.433 32.3663 23.783 32.3163 25.0997V25.1163ZM29.6497 12.7163C29.4512 12.178 29.1384 11.6891 28.7327 11.2834C28.3269 10.8776 27.838 10.5648 27.2997 10.3663C26.5605 10.1101 25.7819 9.98599 24.9997 9.99967C23.6997 9.99967 23.333 9.99967 19.9997 9.99967C16.6663 9.99967 16.2997 9.99967 14.9997 9.99967C14.2135 10.0074 13.4348 10.1541 12.6997 10.433C12.1696 10.6224 11.6858 10.9225 11.2806 11.3133C10.8755 11.7042 10.5581 12.1767 10.3497 12.6997C10.1076 13.442 9.98939 14.219 9.99967 14.9997C9.99967 16.2997 9.99967 16.6663 9.99967 19.9997C9.99967 23.333 9.99967 23.6997 9.99967 24.9997C10.0162 25.785 10.1626 26.5622 10.433 27.2997C10.6314 27.838 10.9443 28.3269 11.35 28.7327C11.7557 29.1384 12.2446 29.4512 12.783 29.6497C13.4941 29.9112 14.2424 30.0575 14.9997 30.083C16.2997 30.083 16.6663 30.083 19.9997 30.083C23.333 30.083 23.6997 30.083 24.9997 30.083C25.7859 30.0753 26.5646 29.9286 27.2997 29.6497C27.838 29.4512 28.3269 29.1384 28.7327 28.7327C29.1384 28.3269 29.4512 27.838 29.6497 27.2997C29.9286 26.5646 30.0753 25.7859 30.083 24.9997C30.083 23.6997 30.083 23.333 30.083 19.9997C30.083 16.6663 30.083 16.2997 30.083 14.9997C30.0835 14.2127 29.9365 13.4325 29.6497 12.6997V12.7163ZM19.9997 26.3663C19.1644 26.3663 18.3373 26.2015 17.5658 25.8814C16.7943 25.5612 16.0935 25.092 15.5036 24.5006C14.9138 23.9092 14.4464 23.2072 14.1282 22.4348C13.8101 21.6625 13.6475 20.835 13.6497 19.9997C13.6497 18.7398 14.0235 17.5082 14.7238 16.4608C15.4241 15.4135 16.4195 14.5974 17.5838 14.1161C18.7481 13.6347 20.0291 13.5096 21.2646 13.7566C22.5 14.0036 23.6344 14.6116 24.5242 15.5037C25.4139 16.3958 26.0189 17.5317 26.2627 18.7678C26.5065 20.004 26.378 21.2846 25.8936 22.4477C25.4091 23.6107 24.5905 24.6039 23.5413 25.3015C22.4922 25.999 21.2596 26.3696 19.9997 26.3663ZM26.6663 14.883C26.2979 14.844 25.957 14.67 25.7091 14.3946C25.4613 14.1192 25.3242 13.7618 25.3242 13.3913C25.3242 13.0209 25.4613 12.6635 25.7091 12.3881C25.957 12.1126 26.2979 11.9387 26.6663 11.8997C27.0348 11.9387 27.3757 12.1126 27.6235 12.3881C27.8713 12.6635 28.0084 13.0209 28.0084 13.3913C28.0084 13.7618 27.8713 14.1192 27.6235 14.3946C27.3757 14.67 27.0348 14.844 26.6663 14.883Z" fill="white"/>
</svg>
