<svg width="34" height="34" viewBox="0 0 34 34" fill="none" xmlns="http://www.w3.org/2000/svg">
<path d="M31.1169 0.333241H2.88359C2.56622 0.328833 2.2511 0.386987 1.9562 0.504381C1.66131 0.621774 1.39243 0.796109 1.16492 1.01743C0.937413 1.23875 0.755729 1.50271 0.630247 1.79426C0.504764 2.0858 0.437941 2.3992 0.433594 2.71657V31.2832C0.437941 31.6006 0.504764 31.914 0.630247 32.2056C0.755729 32.4971 0.937413 32.7611 1.16492 32.9824C1.39243 33.2037 1.66131 33.378 1.9562 33.4954C2.2511 33.6128 2.56622 33.671 2.88359 33.6666H31.1169C31.4343 33.671 31.7494 33.6128 32.0443 33.4954C32.3392 33.378 32.6081 33.2037 32.8356 32.9824C33.0631 32.7611 33.2448 32.4971 33.3703 32.2056C33.4958 31.914 33.5626 31.6006 33.5669 31.2832V2.71657C33.5626 2.3992 33.4958 2.0858 33.3703 1.79426C33.2448 1.50271 33.0631 1.23875 32.8356 1.01743C32.6081 0.796109 32.3392 0.621774 32.0443 0.504381C31.7494 0.386987 31.4343 0.328833 31.1169 0.333241ZM10.4836 28.2332H5.48359V13.2332H10.4836V28.2332ZM7.98359 11.1332C7.29403 11.1332 6.63271 10.8593 6.14512 10.3717C5.65752 9.88412 5.38359 9.2228 5.38359 8.53324C5.38359 7.84368 5.65752 7.18236 6.14512 6.69476C6.63271 6.20717 7.29403 5.93324 7.98359 5.93324C8.34975 5.89172 8.72055 5.928 9.07172 6.03971C9.42288 6.15143 9.74649 6.33606 10.0214 6.58151C10.2962 6.82696 10.5161 7.12771 10.6667 7.46404C10.8173 7.80038 10.8951 8.16473 10.8951 8.53324C10.8951 8.90175 10.8173 9.2661 10.6667 9.60244C10.5161 9.93878 10.2962 10.2395 10.0214 10.485C9.74649 10.7304 9.42288 10.9151 9.07172 11.0268C8.72055 11.1385 8.34975 11.1748 7.98359 11.1332ZM28.5169 28.2332H23.5169V20.1832C23.5169 18.1666 22.8003 16.8499 20.9836 16.8499C20.4214 16.854 19.8739 17.0304 19.415 17.3552C18.9561 17.68 18.6077 18.1377 18.4169 18.6666C18.2865 19.0583 18.23 19.4709 18.2503 19.8832V28.2166H13.2503C13.2503 28.2166 13.2503 14.5832 13.2503 13.2166H18.2503V15.3332C18.7045 14.5451 19.3651 13.8958 20.161 13.4552C20.9569 13.0147 21.8579 12.7997 22.7669 12.8332C26.1003 12.8332 28.5169 14.9832 28.5169 19.5999V28.2332Z" fill="white"/>
</svg>
