<svg width="99" height="99" viewBox="0 0 99 99" fill="none" xmlns="http://www.w3.org/2000/svg">
<g filter="url(#filter0_d_2318_26078)">
<path d="M95.0007 46.4887L90.5313 50.0914C90.3655 50.2341 90.1863 50.3602 89.9961 50.4678L86.7042 52.296C82.2021 54.4412 77.2204 55.368 72.2523 54.9846C65.6659 54.3729 59.5011 51.4618 54.8296 46.7576L19.5562 11.1876L21.9916 9.30564C28.7048 4.18436 36.7024 1.03736 45.092 0.21569C53.4817 -0.605983 61.9337 0.929978 69.5052 4.65224C77.0766 8.3745 83.4699 14.1367 87.9718 21.2961C92.4736 28.4555 94.9071 36.7305 95.0007 45.1982V46.4887ZM87.1324 45.8703L87.3733 45.7359L89.5946 43.9345C89.3303 36.8284 87.1928 29.9202 83.4006 23.9157C79.6084 17.9111 74.2974 13.0256 68.0103 9.75825C61.7232 6.49088 54.6853 4.95882 47.6158 5.3186C40.5463 5.67838 33.6986 7.9171 27.7724 11.806L58.63 42.9129C61.9129 46.2451 66.1386 48.4796 70.7313 49.3119C75.3241 50.1442 80.0606 49.5339 84.2956 47.5641L87.1324 45.8703Z" fill="white"/>
<path d="M81.4689 77.7936C80.4529 78.8135 79.3834 79.7798 78.1535 80.7997C77.4584 81.3633 76.7364 81.9269 76.0413 82.4369C68.3601 88.0445 59.096 91.0441 49.5984 90.9987C48.7696 90.9987 47.8605 90.9987 46.9247 90.9987C45.2938 90.9987 43.6094 90.7035 41.9785 90.4619C41.1764 90.4619 40.3475 90.1667 39.5454 89.9788C36.3569 89.2863 33.2544 88.2422 30.2945 86.8654C29.0913 86.2749 27.9415 85.6845 26.7918 85.0135C23.3384 83.0305 20.1643 80.5934 17.3537 77.7668C16.8447 77.2746 16.3627 76.7549 15.91 76.2101C15.5733 75.8939 15.2605 75.553 14.9742 75.1902C14.7887 74.9888 14.6189 74.7735 14.4662 74.546C14.1453 74.1703 13.771 73.714 13.4234 73.2309L12.7817 72.3452C12.5411 72.0231 12.3004 71.701 12.0865 71.3521L11.9529 71.1374L11.3112 70.198L10.8032 69.366C10.4436 68.8113 10.1134 68.2379 9.81397 67.6482C9.56503 67.2654 9.35025 66.8613 9.17223 66.4405C8.93159 66.0379 8.61081 65.4206 8.31671 64.8032C8.0226 64.1859 7.62151 63.1929 7.27393 62.334C4.46288 55.3651 3.43784 47.7997 4.29263 40.3303C5.14741 32.8609 7.85469 25.726 12.1667 19.5785L12.9155 18.6391C13.1294 18.2902 13.3967 17.9681 13.6373 17.646L15.5089 15.2305L17.7281 17.324L50.9086 50.4172C55.7239 55.2822 61.9087 58.5489 68.63 59.7774C75.3514 61.0059 82.2863 60.1371 88.5007 57.2882L94.2224 54.6042L92.1369 60.5894C90.7346 64.665 88.7535 68.5159 86.2548 72.0231L86.0676 72.4257L84.918 73.9019C84.5169 74.4387 83.9821 75.056 83.4474 75.6733C82.9126 76.2906 82.1373 77.069 81.4689 77.7936ZM16.204 67.6214C16.2926 67.7795 16.3908 67.9319 16.4982 68.0777L16.6586 68.3192C16.8198 68.5966 17.0079 68.8573 17.2201 69.0976L17.8083 69.9565L18.7708 71.1374L19.1986 71.6742C19.4268 71.9618 19.6771 72.231 19.9472 72.4794C20.4552 73.0699 20.8295 73.4724 21.2306 73.875C23.7109 76.3616 26.5066 78.5093 29.5457 80.2629C30.5885 80.8533 31.6313 81.3901 32.674 81.9001C35.2423 83.0854 37.932 83.9854 40.6951 84.5841C41.4704 84.7719 42.1389 84.9061 42.8608 85.0135C44.3487 85.2526 45.8479 85.4139 47.3525 85.4966C48.0828 85.5368 48.8147 85.5368 49.545 85.4966C57.9278 85.5475 66.1071 82.9047 72.8863 77.9547C73.528 77.5073 74.143 77.0242 74.7312 76.5053C76.4014 75.1511 77.9573 73.661 79.3834 72.0499C79.8647 71.4595 80.3192 70.9495 80.7202 70.4127C81.1213 69.8759 81.4154 69.527 81.7095 69.1244L81.8699 68.8829C82.9106 67.4483 83.8488 65.9415 84.6773 64.3738C80.2781 65.5461 75.71 65.9457 71.1751 65.5548C62.0784 64.7114 53.5637 60.6942 47.1119 54.2016L16.1773 23.175C12.5629 28.5554 10.3235 34.7463 9.65674 41.2011C8.98994 47.656 9.91622 54.1764 12.3539 60.1868C12.6033 60.9243 12.9071 61.642 13.263 62.334C13.4801 62.8506 13.7302 63.3526 14.0116 63.837C14.1466 64.1492 14.2984 64.4538 14.4662 64.7496C14.894 65.5279 15.2683 66.1184 15.6158 66.682L16.1773 67.2457L16.204 67.6214Z" fill="#F25B38"/>
</g>
<defs>
<filter id="filter0_d_2318_26078" x="0" y="0" width="99.0005" height="99" filterUnits="userSpaceOnUse" color-interpolation-filters="sRGB">
<feFlood flood-opacity="0" result="BackgroundImageFix"/>
<feColorMatrix in="SourceAlpha" type="matrix" values="0 0 0 0 0 0 0 0 0 0 0 0 0 0 0 0 0 0 127 0" result="hardAlpha"/>
<feOffset dy="4"/>
<feGaussianBlur stdDeviation="2"/>
<feComposite in2="hardAlpha" operator="out"/>
<feColorMatrix type="matrix" values="0 0 0 0 0 0 0 0 0 0 0 0 0 0 0 0 0 0 0.25 0"/>
<feBlend mode="normal" in2="BackgroundImageFix" result="effect1_dropShadow_2318_26078"/>
<feBlend mode="normal" in="SourceGraphic" in2="effect1_dropShadow_2318_26078" result="shape"/>
</filter>
</defs>
</svg>
