<svg width="226" height="216" viewBox="0 0 226 216" fill="none" xmlns="http://www.w3.org/2000/svg">
<path d="M226 127.715L213.722 137.613C213.266 138.005 212.774 138.351 212.251 138.647L203.208 143.669C190.84 149.563 177.154 152.109 163.505 151.056C145.411 149.375 128.475 141.378 115.641 128.454L18.7363 30.7351L25.427 25.5648C43.8699 11.4954 65.841 2.84988 88.8894 0.592551C111.938 -1.66478 135.157 2.55487 155.958 12.7808C176.759 23.0067 194.322 38.8368 206.69 58.5054C219.058 78.1739 225.743 100.907 226 124.17V127.715ZM204.384 126.017L205.046 125.647L211.149 120.699C210.422 101.176 204.55 82.1978 194.132 65.702C183.714 49.2061 169.123 35.7844 151.851 26.8082C134.579 17.832 115.245 13.623 95.8229 14.6114C76.4013 15.5998 57.589 21.7501 41.3082 32.4339L126.081 117.892C135.1 127.046 146.709 133.185 159.327 135.471C171.944 137.758 184.956 136.081 196.591 130.67L204.384 126.017Z" fill="#F25B38" fill-opacity="0.2"/>
<path d="M188.825 213.721C186.034 216.523 183.096 219.178 179.717 221.98C177.807 223.528 175.824 225.077 173.914 226.478C152.812 241.883 127.362 250.124 101.27 249.999C98.9926 249.999 96.4952 249.999 93.9244 249.999C89.4438 249.999 84.8164 249.188 80.3358 248.524C78.1322 248.524 75.8552 247.713 73.6516 247.197C64.8921 245.294 56.3688 242.426 48.2371 238.644C44.9317 237.022 41.773 235.399 38.6146 233.556C29.1272 228.108 20.4072 221.413 12.6858 213.648C11.2873 212.295 9.96334 210.868 8.71953 209.371C7.79461 208.502 6.93525 207.566 6.14864 206.569C5.63909 206.016 5.1725 205.424 4.75302 204.8C3.87159 203.767 2.84315 202.514 1.88826 201.186L0.125473 198.753C-0.535601 197.868 -1.19675 196.984 -1.78437 196.025L-2.15154 195.435L-3.91433 192.854L-5.30995 190.569C-6.29803 189.045 -7.20518 187.47 -8.02766 185.85C-8.71154 184.798 -9.30161 183.688 -9.79067 182.532C-10.4517 181.426 -11.333 179.73 -12.141 178.034C-12.949 176.338 -14.0509 173.61 -15.0057 171.25C-22.7284 152.105 -25.5444 131.321 -23.1961 110.801C-20.8478 90.2807 -13.4103 70.6793 -1.56402 53.7907L0.49287 51.21C1.08049 50.2515 1.81494 49.3666 2.47601 48.4818L7.61756 41.8457L13.7142 47.597L104.869 138.512C118.098 151.877 135.089 160.852 153.554 164.227C172.019 167.602 191.071 165.215 208.143 157.388L223.862 150.015L218.133 166.457C214.28 177.654 208.838 188.233 201.973 197.868L201.459 198.974L198.301 203.03C197.199 204.505 195.73 206.2 194.261 207.896C192.792 209.592 190.662 211.731 188.825 213.721ZM9.5274 185.776C9.77058 186.21 10.0406 186.629 10.3355 187.029L10.7762 187.693C11.2191 188.455 11.7357 189.171 12.3186 189.831L13.9346 192.191L16.5788 195.435L17.7541 196.91C18.3809 197.7 19.0686 198.44 19.8107 199.122C21.2063 200.744 22.2347 201.85 23.3365 202.956C30.1505 209.787 37.8311 215.688 46.1802 220.505C49.0448 222.127 51.9096 223.602 54.7742 225.003C61.83 228.259 69.2191 230.732 76.81 232.376C78.9401 232.892 80.7764 233.261 82.7597 233.556C86.8473 234.213 90.9661 234.656 95.0996 234.883C97.1058 234.994 99.1166 234.994 101.123 234.883C124.152 235.023 146.623 227.763 165.247 214.164C167.01 212.935 168.699 211.608 170.315 210.182C174.904 206.462 179.178 202.368 183.096 197.942C184.418 196.32 185.667 194.919 186.769 193.444C187.87 191.97 188.678 191.011 189.486 189.905L189.927 189.241C192.786 185.3 195.363 181.161 197.64 176.854C185.554 180.075 173.004 181.172 160.546 180.098C135.555 177.782 112.163 166.745 94.4386 148.909L9.45387 63.6712C-0.475735 78.4525 -6.62776 95.4602 -8.45962 113.193C-10.2915 130.926 -7.74675 148.839 -1.0498 165.351C-0.364719 167.377 0.470036 169.349 1.44757 171.25C2.04419 172.669 2.73115 174.049 3.50423 175.379C3.87518 176.237 4.29211 177.074 4.75302 177.886C5.92826 180.025 6.95655 181.647 7.91143 183.195L9.45387 184.744L9.5274 185.776Z" fill="#02272F" fill-opacity="0.2"/>
</svg>
