<svg width="120" height="120" viewBox="0 0 120 120" fill="none" xmlns="http://www.w3.org/2000/svg">
<path d="M120 61.3043L114.106 66.0551C113.888 66.2433 113.651 66.4096 113.4 66.5515L109.059 68.9624C103.123 71.7912 96.5534 73.0134 90.002 72.5078C81.3167 71.7011 73.1873 67.8623 67.0271 61.6588L20.5127 14.7531L23.7243 12.2713C32.5769 5.51788 43.123 1.36796 54.1864 0.284428C65.2497 -0.799105 76.3951 1.22635 86.3795 6.13487C96.3638 11.0434 104.794 18.642 110.731 28.083C116.668 37.524 119.876 48.4363 120 59.6025V61.3043ZM109.624 60.4888L109.942 60.3116L112.871 57.9361C112.522 48.5654 109.704 39.4555 104.703 31.5374C99.7024 23.6193 92.6989 17.1768 84.4082 12.8681C76.1175 8.55948 66.8369 6.53916 57.5145 7.01359C48.192 7.48803 39.1621 10.4402 31.3473 15.5685L72.0386 56.5889C76.3677 60.9831 81.94 63.9297 87.9964 65.0272C94.0528 66.1248 100.299 65.32 105.883 62.7225L109.624 60.4888Z" fill="#F25B38" fill-opacity="0.7"/>
<path d="M102.157 102.587C100.817 103.932 99.4066 105.207 97.7847 106.552C96.868 107.295 95.9161 108.038 94.9994 108.711C84.8703 116.105 72.654 120.061 60.1297 120.001C59.0367 120.001 57.838 120.001 56.604 120.001C54.4533 120.001 52.2322 119.612 50.0814 119.293C49.0237 119.293 47.9307 118.904 46.873 118.656C42.6684 117.743 38.5772 116.366 34.674 114.55C33.0874 113.772 31.5712 112.993 30.0551 112.108C25.5012 109.493 21.3155 106.28 17.6093 102.552C16.938 101.903 16.3025 101.218 15.7055 100.499C15.2615 100.082 14.849 99.6327 14.4714 99.1544C14.2268 98.8888 14.0029 98.6048 13.8015 98.3049C13.3784 97.8094 12.8848 97.2077 12.4264 96.5706L11.5803 95.4027C11.263 94.978 10.9456 94.5532 10.6636 94.0931L10.4873 93.81L9.64117 92.5712L8.97127 91.474C8.49699 90.7426 8.06155 89.9865 7.66676 89.2089C7.3385 88.704 7.05526 88.1711 6.82051 87.6162C6.50319 87.0853 6.08019 86.2712 5.69235 85.4572C5.30452 84.6431 4.77561 83.3336 4.31726 82.201C0.61039 73.0112 -0.74131 63.0348 0.385879 53.1849C1.51307 43.3351 5.0831 33.9263 10.7693 25.8196L11.7566 24.5809C12.0387 24.1208 12.3912 23.696 12.7085 23.2713L15.1765 20.0859L18.1029 22.8466L61.8574 66.4864C68.2072 72.9018 76.3631 77.2096 85.2263 78.8297C94.0896 80.4497 103.235 79.304 111.429 75.5471L118.974 72.0078L116.224 79.9005C114.375 85.2748 111.763 90.3531 108.468 94.978L108.221 95.5089L106.705 97.4555C106.176 98.1633 105.471 98.9774 104.766 99.7914C104.06 100.605 103.038 101.632 102.157 102.587ZM16.0932 89.1735C16.21 89.3819 16.3395 89.5829 16.4811 89.7752L16.6927 90.0937C16.9053 90.4594 17.1532 90.8032 17.433 91.1201L18.2087 92.2527L19.4779 93.81L20.042 94.5178C20.343 94.8971 20.673 95.2522 21.0293 95.5796C21.6991 96.3583 22.1928 96.8892 22.7216 97.4201C25.9924 100.699 29.6791 103.531 33.6867 105.844C35.0617 106.622 36.4368 107.33 37.8118 108.003C41.1986 109.566 44.7454 110.753 48.3891 111.542C49.4115 111.79 50.2929 111.967 51.2449 112.108C53.207 112.424 55.184 112.636 57.1681 112.745C58.1311 112.798 59.0963 112.798 60.0592 112.745C71.1135 112.813 81.8993 109.327 90.839 102.8C91.6852 102.21 92.4961 101.573 93.2718 100.889C95.4742 99.1029 97.526 97.1378 99.4066 95.0134C100.041 94.2347 100.641 93.5622 101.169 92.8544C101.698 92.1465 102.086 91.6864 102.474 91.1555L102.685 90.837C104.058 88.9452 105.295 86.9582 106.388 84.8909C100.586 86.4368 94.5626 86.9637 88.5825 86.4482C76.5867 85.3361 65.3587 80.0386 56.8508 71.4769L16.0579 30.5623C11.2917 37.6574 8.33871 45.8213 7.45942 54.3333C6.58013 62.8453 7.8016 71.4436 11.0162 79.3696C11.345 80.342 11.7457 81.2885 12.2149 82.201C12.5013 82.8823 12.831 83.5443 13.2021 84.183C13.3802 84.5947 13.5803 84.9964 13.8015 85.3864C14.3656 86.4128 14.8592 87.1915 15.3176 87.9347L16.0579 88.678L16.0932 89.1735Z" fill="#F25B38" fill-opacity="0.7"/>
</svg>
