<svg width="18" height="19" viewBox="0 0 18 19" fill="none" xmlns="http://www.w3.org/2000/svg">
<path d="M16.7995 18.9746L10.3243 12.5C9.82431 12.9164 9.24111 13.2454 8.57471 13.487C7.90791 13.729 7.20791 13.85 6.47471 13.85C4.65791 13.85 3.12451 13.225 1.87451 11.975C0.624512 10.725 -0.000488281 9.20821 -0.000488281 7.42461C-0.000488281 5.64141 0.624512 4.12061 1.87451 2.86221C3.12451 1.60381 4.64951 0.974609 6.44951 0.974609C8.23271 0.974609 9.74931 1.60381 10.9993 2.86221C12.2493 4.12061 12.8743 5.64141 12.8743 7.42461C12.8743 8.14141 12.7577 8.82901 12.5245 9.48741C12.2913 10.1458 11.9497 10.7582 11.4997 11.3246L17.9995 17.7746L16.7995 18.9746ZM6.44951 12.1748C7.76631 12.1748 8.88711 11.7122 9.81191 10.787C10.7371 9.86221 11.1997 8.74141 11.1997 7.42461C11.1997 6.10821 10.7371 4.98321 9.81191 4.04961C8.88711 3.11641 7.76631 2.64981 6.44951 2.64981C5.11631 2.64981 3.98711 3.11641 3.06191 4.04961C2.13711 4.98321 1.67471 6.10821 1.67471 7.42461C1.67471 8.74141 2.13711 9.86221 3.06191 10.787C3.98711 11.7122 5.11631 12.1748 6.44951 12.1748Z" fill="#F25B38" fill-opacity="0.7"/>
</svg>
