<svg width="34" height="28" viewBox="0 0 34 28" fill="none" xmlns="http://www.w3.org/2000/svg">
<path d="M33.6663 3.66702C32.4136 4.21051 31.0887 4.56979 29.733 4.73368C31.1633 3.87922 32.2351 2.53499 32.7497 0.950349C31.4056 1.75045 29.9343 2.31418 28.3997 2.61702C27.3739 1.50464 26.008 0.764177 24.516 0.511768C23.0241 0.25936 21.4906 0.50928 20.156 1.22233C18.8214 1.93538 17.7612 3.07123 17.1417 4.45174C16.5223 5.83225 16.3785 7.37933 16.733 8.85035C14.0154 8.71289 11.3571 8.00527 8.93077 6.77345C6.50446 5.54163 4.36442 3.81317 2.64967 1.70035C2.04824 2.75063 1.73221 3.94005 1.73301 5.15035C1.73088 6.27432 2.0067 7.38138 2.53593 8.37296C3.06516 9.36454 3.83137 10.2099 4.76634 10.8337C3.67964 10.8041 2.61615 10.5125 1.66634 9.98368V10.067C1.67449 11.6418 2.22633 13.1655 3.22853 14.3803C4.23073 15.5951 5.62177 16.4264 7.16634 16.7337C6.57177 16.9146 5.95447 17.01 5.33301 17.017C4.90282 17.012 4.47371 16.973 4.04967 16.9003C4.48952 18.255 5.34071 19.4389 6.4848 20.2873C7.62889 21.1356 9.00897 21.6063 10.433 21.6337C8.02835 23.5258 5.05948 24.5584 1.99967 24.567C1.44257 24.5688 0.8859 24.5354 0.333008 24.467C3.45706 26.4841 7.0977 27.5549 10.8163 27.5503C13.3825 27.577 15.9282 27.092 18.3049 26.1238C20.6815 25.1556 22.8414 23.7235 24.6583 21.9112C26.4753 20.0989 27.9129 17.9427 28.8873 15.5685C29.8616 13.1944 30.3531 10.6499 30.333 8.08368C30.333 7.80035 30.333 7.50035 30.333 7.20035C31.6408 6.22503 32.7688 5.02939 33.6663 3.66702Z" fill="white"/>
</svg>
