<svg width="232" height="199" viewBox="0 0 232 199" fill="none" xmlns="http://www.w3.org/2000/svg">
<g filter="url(#filter0_d_1792_34748)">
<path d="M254 68.7154L241.722 78.6129C241.266 79.0049 240.774 79.3512 240.251 79.6469L231.208 84.6695C218.84 90.5629 205.154 93.1089 191.505 92.0557C173.411 90.375 156.475 82.3778 143.641 69.454L46.7363 -28.2649L53.427 -33.4352C71.8699 -47.5046 93.841 -56.1501 116.889 -58.4074C139.938 -60.6648 163.157 -56.4451 183.958 -46.2192C204.759 -35.9933 222.322 -20.1632 234.69 -0.494644C247.058 19.1739 253.743 41.9074 254 65.17V68.7154ZM232.384 67.0166L233.046 66.6473L239.149 61.6985C238.422 42.1764 232.55 23.1978 222.132 6.70196C211.714 -9.79387 197.123 -23.2156 179.851 -32.1918C162.579 -41.168 143.245 -45.377 123.823 -44.3886C104.401 -43.4002 85.589 -37.2499 69.3082 -26.5661L154.081 58.8918C163.1 68.0462 174.709 74.1848 187.327 76.4714C199.944 78.758 212.956 77.0813 224.591 71.6699L232.384 67.0166Z" fill="#F25B38" fill-opacity="0.2"/>
<path d="M216.825 154.721C214.034 157.523 211.096 160.178 207.717 162.98C205.807 164.528 203.824 166.077 201.914 167.478C180.812 182.883 155.362 191.124 129.27 190.999C126.993 190.999 124.495 190.999 121.924 190.999C117.444 190.999 112.816 190.188 108.336 189.524C106.132 189.524 103.855 188.713 101.652 188.197C92.8921 186.294 84.3688 183.426 76.2371 179.644C72.9317 178.022 69.773 176.399 66.6146 174.556C57.1272 169.108 48.4072 162.413 40.6858 154.648C39.2873 153.295 37.9633 151.868 36.7195 150.371C35.7946 149.502 34.9352 148.566 34.1486 147.569C33.6391 147.016 33.1725 146.424 32.753 145.8C31.8716 144.767 30.8431 143.514 29.8883 142.186L28.1255 139.753C27.4644 138.868 26.8033 137.984 26.2156 137.025L25.8485 136.435L24.0857 133.854L22.6901 131.569C21.702 130.045 20.7948 128.47 19.9723 126.85C19.2885 125.798 18.6984 124.688 18.2093 123.532C17.5483 122.426 16.667 120.73 15.859 119.034C15.051 117.338 13.9491 114.61 12.9943 112.25C5.27164 93.105 2.45561 72.3212 4.80391 51.8009C7.15221 31.2807 14.5897 11.6793 26.436 -5.20927L28.4929 -7.78998C29.0805 -8.74854 29.8149 -9.63335 30.476 -10.5182L35.6176 -17.1543L41.7142 -11.403L132.869 79.512C146.098 92.8772 163.089 101.852 181.554 105.227C200.019 108.602 219.071 106.215 236.143 98.3881L251.862 91.0146L246.133 107.457C242.28 118.654 236.838 129.233 229.973 138.868L229.459 139.974L226.301 144.03C225.199 145.505 223.73 147.2 222.261 148.896C220.792 150.592 218.662 152.731 216.825 154.721ZM37.5274 126.776C37.7706 127.21 38.0406 127.629 38.3355 128.029L38.7762 128.693C39.2191 129.455 39.7357 130.171 40.3186 130.831L41.9346 133.191L44.5788 136.435L45.7541 137.91C46.3809 138.7 47.0686 139.44 47.8107 140.122C49.2063 141.744 50.2347 142.85 51.3365 143.956C58.1505 150.787 65.8311 156.688 74.1802 161.505C77.0448 163.127 79.9096 164.602 82.7742 166.003C89.83 169.259 97.2191 171.732 104.81 173.376C106.94 173.892 108.776 174.261 110.76 174.556C114.847 175.213 118.966 175.656 123.1 175.883C125.106 175.994 127.117 175.994 129.123 175.883C152.152 176.023 174.623 168.763 193.247 155.164C195.01 153.935 196.699 152.608 198.315 151.182C202.904 147.462 207.178 143.368 211.096 138.942C212.418 137.32 213.667 135.919 214.769 134.444C215.87 132.97 216.678 132.011 217.486 130.905L217.927 130.241C220.786 126.3 223.363 122.161 225.64 117.854C213.554 121.075 201.004 122.172 188.546 121.098C163.555 118.782 140.163 107.745 122.439 89.9086L37.4539 4.67119C27.5243 19.4525 21.3722 36.4602 19.5404 54.1933C17.7085 71.9263 20.2532 89.8394 26.9502 106.351C27.6353 108.377 28.47 110.349 29.4476 112.25C30.0442 113.669 30.7312 115.049 31.5042 116.379C31.8752 117.237 32.2921 118.074 32.753 118.886C33.9283 121.025 34.9565 122.647 35.9114 124.195L37.4539 125.744L37.5274 126.776Z" fill="#02272F" fill-opacity="0.2"/>
</g>
<defs>
<filter id="filter0_d_1792_34748" x="0" y="-59" width="258" height="258" filterUnits="userSpaceOnUse" color-interpolation-filters="sRGB">
<feFlood flood-opacity="0" result="BackgroundImageFix"/>
<feColorMatrix in="SourceAlpha" type="matrix" values="0 0 0 0 0 0 0 0 0 0 0 0 0 0 0 0 0 0 127 0" result="hardAlpha"/>
<feOffset dy="4"/>
<feGaussianBlur stdDeviation="2"/>
<feComposite in2="hardAlpha" operator="out"/>
<feColorMatrix type="matrix" values="0 0 0 0 0 0 0 0 0 0 0 0 0 0 0 0 0 0 0.25 0"/>
<feBlend mode="normal" in2="BackgroundImageFix" result="effect1_dropShadow_1792_34748"/>
<feBlend mode="normal" in="SourceGraphic" in2="effect1_dropShadow_1792_34748" result="shape"/>
</filter>
</defs>
</svg>
