<svg width="48" height="48" viewBox="0 0 48 48" fill="none" xmlns="http://www.w3.org/2000/svg">
<circle cx="24" cy="24" r="24" fill="#F25B38" fill-opacity="0.2"/>
<path d="M37.7165 15.0663L23.9999 22.9997L10.2832 15.0663C10.5648 14.5789 10.9665 14.1715 11.4499 13.883L22.3332 7.59966C23.3677 7.01626 24.632 7.01626 25.6665 7.59966L36.5499 13.883C37.0333 14.1715 37.4349 14.5789 37.7165 15.0663Z" fill="#02272F" fill-opacity="0.2"/>
<path d="M24.0002 22.9997V38.8331C23.4747 38.8324 22.9562 38.7127 22.4835 38.4831L11.5002 32.1331C10.4706 31.5375 9.83575 30.4391 9.8335 29.2497V16.7497C9.83626 16.1593 9.99126 15.5795 10.2835 15.0664L24.0002 22.9997Z" fill="#02272F" fill-opacity="0.7"/>
<path d="M38.1667 16.7497V29.2497C38.1644 30.4391 37.5295 31.5375 36.5 32.1331L25.4667 38.4997C25.0078 38.7161 24.5073 38.8299 24 38.8331V22.9997L37.7167 15.0664C38.0089 15.5795 38.1639 16.1593 38.1667 16.7497Z" fill="#02272F"/>
</svg>
