<svg width="18" height="24" viewBox="0 0 18 24" fill="none" xmlns="http://www.w3.org/2000/svg">
<path d="M10.125 8.4H16.3125L10.125 1.8V8.4ZM2.25 0H11.25L18 7.2V21.6C18 22.2365 17.7629 22.847 17.341 23.2971C16.919 23.7471 16.3467 24 15.75 24H2.25C1.00125 24 0 22.92 0 21.6V2.4C0 1.068 1.00125 0 2.25 0ZM2.25 21.6H12.375H15.75V12L11.25 16.8L9 14.4L2.25 21.6ZM4.5 8.4C3.90326 8.4 3.33097 8.65286 2.90901 9.10294C2.48705 9.55303 2.25 10.1635 2.25 10.8C2.25 11.4365 2.48705 12.047 2.90901 12.4971C3.33097 12.9471 3.90326 13.2 4.5 13.2C5.09674 13.2 5.66903 12.9471 6.09099 12.4971C6.51295 12.047 6.75 11.4365 6.75 10.8C6.75 10.1635 6.51295 9.55303 6.09099 9.10294C5.66903 8.65286 5.09674 8.4 4.5 8.4Z" fill="black"/>
</svg>
